<svg width="2949" height="1771" xmlns="http://www.w3.org/2000/svg" xmlns:xlink="http://www.w3.org/1999/xlink" overflow="hidden"><defs><clipPath id="clip0"><rect x="3486" y="87" width="2949" height="1771"/></clipPath><clipPath id="clip1"><rect x="3486" y="88" width="2947" height="1768"/></clipPath><clipPath id="clip2"><rect x="3486" y="88" width="2947" height="1768"/></clipPath><clipPath id="clip3"><rect x="3486" y="88" width="2947" height="1768"/></clipPath><clipPath id="clip4"><rect x="3486" y="88" width="2947" height="1768"/></clipPath><clipPath id="clip5"><rect x="3486" y="88" width="2947" height="1768"/></clipPath><clipPath id="clip6"><rect x="3486" y="88" width="2947" height="1768"/></clipPath><clipPath id="clip7"><rect x="3486" y="88" width="2947" height="1768"/></clipPath><clipPath id="clip8"><rect x="3932" y="235" width="2373" height="1362"/></clipPath><clipPath id="clip9"><rect x="3486" y="88" width="2947" height="1768"/></clipPath><clipPath id="clip10"><rect x="3932" y="235" width="2373" height="1362"/></clipPath><clipPath id="clip11"><rect x="3486" y="88" width="2947" height="1768"/></clipPath><clipPath id="clip12"><rect x="3486" y="88" width="2947" height="1768"/></clipPath><clipPath id="clip13"><rect x="3486" y="88" width="2947" height="1768"/></clipPath><clipPath id="clip14"><rect x="3486" y="88" width="2947" height="1768"/></clipPath><clipPath id="clip15"><rect x="3486" y="88" width="2947" height="1768"/></clipPath><clipPath id="clip16"><rect x="3486" y="88" width="2947" height="1768"/></clipPath><clipPath id="clip17"><rect x="3486" y="88" width="2947" height="1768"/></clipPath><clipPath id="clip18"><rect x="3486" y="88" width="2947" height="1768"/></clipPath><clipPath id="clip19"><rect x="3486" y="88" width="2947" height="1768"/></clipPath><clipPath id="clip20"><rect x="3486" y="88" width="2947" height="1768"/></clipPath><clipPath id="clip21"><rect x="3486" y="88" width="2947" height="1768"/></clipPath><clipPath id="clip22"><rect x="3486" y="88" width="2947" height="1768"/></clipPath><clipPath id="clip23"><rect x="3486" y="88" width="2947" height="1768"/></clipPath><clipPath id="clip24"><rect x="3486" y="88" width="2947" height="1768"/></clipPath><clipPath id="clip25"><rect x="3486" y="88" width="2947" height="1768"/></clipPath><clipPath id="clip26"><rect x="3486" y="88" width="2947" height="1768"/></clipPath><clipPath id="clip27"><rect x="3486" y="88" width="2947" height="1768"/></clipPath><clipPath id="clip28"><rect x="3486" y="88" width="2947" height="1768"/></clipPath><clipPath id="clip29"><rect x="3486" y="88" width="2947" height="1768"/></clipPath><clipPath id="clip30"><rect x="3486" y="88" width="2947" height="1768"/></clipPath><clipPath id="clip31"><rect x="3486" y="88" width="2947" height="1768"/></clipPath><clipPath id="clip32"><rect x="3486" y="88" width="2947" height="1768"/></clipPath><clipPath id="clip33"><rect x="3486" y="88" width="2947" height="1768"/></clipPath><clipPath id="clip34"><rect x="3486" y="88" width="2947" height="1768"/></clipPath><clipPath id="clip35"><rect x="3486" y="88" width="2947" height="1768"/></clipPath><clipPath id="clip36"><rect x="3486" y="88" width="2947" height="1768"/></clipPath><clipPath id="clip37"><rect x="3486" y="88" width="2947" height="1768"/></clipPath><clipPath id="clip38"><rect x="3486" y="88" width="2947" height="1768"/></clipPath><clipPath id="clip39"><rect x="3486" y="88" width="2947" height="1768"/></clipPath><clipPath id="clip40"><rect x="3486" y="88" width="2947" height="1768"/></clipPath><clipPath id="clip41"><rect x="3486" y="88" width="2947" height="1768"/></clipPath><clipPath id="clip42"><rect x="3486" y="88" width="2947" height="1768"/></clipPath><clipPath id="clip43"><rect x="3486" y="88" width="2947" height="1768"/></clipPath><clipPath id="clip44"><rect x="3486" y="88" width="2947" height="1768"/></clipPath><clipPath id="clip45"><rect x="3486" y="88" width="2947" height="1768"/></clipPath></defs><g clip-path="url(#clip0)" transform="translate(-3486 -87)"><g clip-path="url(#clip1)"><rect x="3933" y="235" width="2369" height="1360" fill="#FFFFFF" fill-opacity="0.74902"/></g><g clip-path="url(#clip2)"><path d="M3932.5 1367.55 6301.5 1367.55M3932.5 1141.54 6301.5 1141.54M3932.5 914.53 6301.5 914.53M3932.5 688.523 6301.5 688.523M3932.5 461.515 6301.5 461.515M3932.5 235.5 6301.5 235.5" stroke="#D9D9D9" stroke-width="3.4375" stroke-linejoin="round" stroke-miterlimit="10" fill="none"/></g><g clip-path="url(#clip3)"><path d="M4169.64 235.5 4169.64 1594.5M4406.64 235.5 4406.64 1594.5M4643.65 235.5 4643.65 1594.5M4880.66 235.5 4880.66 1594.5M5117.67 235.5 5117.67 1594.5M5354.68 235.5 5354.68 1594.5M5591.68 235.5 5591.68 1594.5M5827.69 235.5 5827.69 1594.5M6064.7 235.5 6064.7 1594.5M6301.5 235.5 6301.5 1594.5" stroke="#D9D9D9" stroke-width="3.4375" stroke-linejoin="round" stroke-miterlimit="10" fill="none"/></g><g clip-path="url(#clip4)"><path d="M0 0 0.000360892 1359" stroke="#000000" stroke-width="3.4375" stroke-linejoin="round" stroke-miterlimit="10" fill="none" fill-rule="evenodd" transform="matrix(1 0 0 -1 3932.5 1594.5)"/></g><g clip-path="url(#clip5)"><path d="M3932.5 1594.5 3959.5 1594.5M3932.5 1367.55 3959.5 1367.55M3932.5 1141.54 3959.5 1141.54M3932.5 914.53 3959.5 914.53M3932.5 688.523 3959.5 688.523M3932.5 461.515 3959.5 461.515M3932.5 235.5 3959.5 235.5" stroke="#000000" stroke-width="3.4375" stroke-linejoin="round" stroke-miterlimit="10" fill="none"/></g><g clip-path="url(#clip6)"><path d="M3932.5 1594.5 6301.5 1594.5" stroke="#000000" stroke-width="3.4375" stroke-linejoin="round" stroke-miterlimit="10" fill="none" fill-rule="evenodd"/></g><g clip-path="url(#clip7)"><path d="M3932.5 1568.5 3932.5 1594.5M4169.64 1568.5 4169.64 1594.5M4406.64 1568.5 4406.64 1594.5M4643.65 1568.5 4643.65 1594.5M4880.66 1568.5 4880.66 1594.5M5117.67 1568.5 5117.67 1594.5M5354.68 1568.5 5354.68 1594.5M5591.68 1568.5 5591.68 1594.5M5827.69 1568.5 5827.69 1594.5M6064.7 1568.5 6064.7 1594.5M6301.5 1568.5 6301.5 1594.5" stroke="#000000" stroke-width="3.4375" stroke-linejoin="round" stroke-miterlimit="10" fill="none"/></g><g clip-path="url(#clip8)"><path d="M4075.5 1555.5 4169.64 1479.55 4406.64 1317.54 4643.65 1169.54 4880.66 1028.53 5117.67 942.531 5259.67 898.53 5354.68 879.5 5448.68 889.529 5591.68 907.53 5827.69 911.53 6064.7 923.531 6301.5 918.53" stroke="#4472C4" stroke-width="6.875" stroke-linecap="round" stroke-linejoin="round" stroke-miterlimit="10" fill="none"/></g><g clip-path="url(#clip9)"><path d="M4086.11 1555.89C4086.11 1561.97 4081.18 1566.89 4075.11 1566.89 4069.03 1566.89 4064.11 1561.97 4064.11 1555.89 4064.11 1549.82 4069.03 1544.89 4075.11 1544.89 4081.18 1544.89 4086.11 1549.82 4086.11 1555.89Z" stroke="#4472C4" stroke-width="3.4375" stroke-linejoin="round" stroke-miterlimit="10" fill="#4472C4"/><path d="M4180.11 1479.89C4180.11 1485.97 4175.18 1490.89 4169.11 1490.89 4163.03 1490.89 4158.11 1485.97 4158.11 1479.89 4158.11 1473.82 4163.03 1468.89 4169.11 1468.89 4175.18 1468.89 4180.11 1473.82 4180.11 1479.89Z" stroke="#4472C4" stroke-width="3.4375" stroke-linejoin="round" stroke-miterlimit="10" fill="#4472C4"/><path d="M4417.11 1317.89C4417.11 1323.97 4412.18 1328.89 4406.11 1328.89 4400.03 1328.89 4395.11 1323.97 4395.11 1317.89 4395.11 1311.82 4400.03 1306.89 4406.11 1306.89 4412.18 1306.89 4417.11 1311.82 4417.11 1317.89Z" stroke="#4472C4" stroke-width="3.4375" stroke-linejoin="round" stroke-miterlimit="10" fill="#4472C4"/><path d="M4654.11 1169.89C4654.11 1175.97 4649.18 1180.89 4643.11 1180.89 4637.03 1180.89 4632.11 1175.97 4632.11 1169.89 4632.11 1163.82 4637.03 1158.89 4643.11 1158.89 4649.18 1158.89 4654.11 1163.82 4654.11 1169.89Z" stroke="#4472C4" stroke-width="3.4375" stroke-linejoin="round" stroke-miterlimit="10" fill="#4472C4"/><path d="M4891.11 1028.89C4891.11 1034.97 4886.18 1039.89 4880.11 1039.89 4874.03 1039.89 4869.11 1034.97 4869.11 1028.89 4869.11 1022.82 4874.03 1017.89 4880.11 1017.89 4886.18 1017.89 4891.11 1022.82 4891.11 1028.89Z" stroke="#4472C4" stroke-width="3.4375" stroke-linejoin="round" stroke-miterlimit="10" fill="#4472C4"/><path d="M5128.11 942.893C5128.11 948.968 5123.18 953.892 5117.11 953.892 5111.03 953.892 5106.11 948.968 5106.11 942.893 5106.11 936.818 5111.03 931.893 5117.11 931.893 5123.18 931.893 5128.11 936.818 5128.11 942.893Z" stroke="#4472C4" stroke-width="3.4375" stroke-linejoin="round" stroke-miterlimit="10" fill="#4472C4"/><path d="M5270.11 898.893C5270.11 904.968 5265.18 909.892 5259.11 909.892 5253.03 909.892 5248.11 904.968 5248.11 898.893 5248.11 892.818 5253.03 887.893 5259.11 887.893 5265.18 887.893 5270.11 892.818 5270.11 898.893Z" stroke="#4472C4" stroke-width="3.4375" stroke-linejoin="round" stroke-miterlimit="10" fill="#4472C4"/><path d="M5365.11 879.893C5365.11 885.968 5360.18 890.892 5354.11 890.892 5348.03 890.892 5343.11 885.968 5343.11 879.893 5343.11 873.818 5348.03 868.893 5354.11 868.893 5360.18 868.893 5365.11 873.818 5365.11 879.893Z" stroke="#4472C4" stroke-width="3.4375" stroke-linejoin="round" stroke-miterlimit="10" fill="#4472C4"/><path d="M5460.11 889.893C5460.11 895.968 5455.18 900.892 5449.11 900.892 5443.03 900.892 5438.11 895.968 5438.11 889.893 5438.11 883.818 5443.03 878.893 5449.11 878.893 5455.18 878.893 5460.11 883.818 5460.11 889.893Z" stroke="#4472C4" stroke-width="3.4375" stroke-linejoin="round" stroke-miterlimit="10" fill="#4472C4"/><path d="M5602.11 907.893C5602.11 913.968 5597.18 918.892 5591.11 918.892 5585.03 918.892 5580.11 913.968 5580.11 907.893 5580.11 901.818 5585.03 896.893 5591.11 896.893 5597.18 896.893 5602.11 901.818 5602.11 907.893Z" stroke="#4472C4" stroke-width="3.4375" stroke-linejoin="round" stroke-miterlimit="10" fill="#4472C4"/><path d="M5839.11 911.893C5839.11 917.968 5834.18 922.892 5828.11 922.892 5822.03 922.892 5817.11 917.968 5817.11 911.893 5817.11 905.818 5822.03 900.893 5828.11 900.893 5834.18 900.893 5839.11 905.818 5839.11 911.893Z" stroke="#4472C4" stroke-width="3.4375" stroke-linejoin="round" stroke-miterlimit="10" fill="#4472C4"/><path d="M6076.11 923.893C6076.11 929.968 6071.18 934.892 6065.11 934.892 6059.03 934.892 6054.11 929.968 6054.11 923.893 6054.11 917.818 6059.03 912.893 6065.11 912.893 6071.18 912.893 6076.11 917.818 6076.11 923.893Z" stroke="#4472C4" stroke-width="3.4375" stroke-linejoin="round" stroke-miterlimit="10" fill="#4472C4"/><path d="M6312.11 918.893C6312.11 924.968 6307.18 929.892 6301.11 929.892 6295.03 929.892 6290.11 924.968 6290.11 918.893 6290.11 912.818 6295.03 907.893 6301.11 907.893 6307.18 907.893 6312.11 912.818 6312.11 918.893Z" stroke="#4472C4" stroke-width="3.4375" stroke-linejoin="round" stroke-miterlimit="10" fill="#4472C4"/></g><g clip-path="url(#clip10)"><path d="M4075.5 1556.5 4169.64 1457.55 4406.64 1311.54 4643.65 1159.54 4880.66 1016.53 5117.67 858.528 5354.68 719.524 5591.68 622.521 5827.69 552.518 6064.7 464.515 6301.5 371.5" stroke="#ED7D31" stroke-width="6.875" stroke-linecap="round" stroke-linejoin="round" stroke-miterlimit="10" fill="none"/></g><g clip-path="url(#clip11)"><path d="M4086.11 1556.89C4086.11 1562.97 4081.18 1567.89 4075.11 1567.89 4069.03 1567.89 4064.11 1562.97 4064.11 1556.89 4064.11 1550.82 4069.03 1545.89 4075.11 1545.89 4081.18 1545.89 4086.11 1550.82 4086.11 1556.89Z" stroke="#ED7D31" stroke-width="3.4375" stroke-linejoin="round" stroke-miterlimit="10" fill="#ED7D31"/><path d="M4180.11 1457.89C4180.11 1463.97 4175.18 1468.89 4169.11 1468.89 4163.03 1468.89 4158.11 1463.97 4158.11 1457.89 4158.11 1451.82 4163.03 1446.89 4169.11 1446.89 4175.18 1446.89 4180.11 1451.82 4180.11 1457.89Z" stroke="#ED7D31" stroke-width="3.4375" stroke-linejoin="round" stroke-miterlimit="10" fill="#ED7D31"/><path d="M4417.11 1311.89C4417.11 1317.97 4412.18 1322.89 4406.11 1322.89 4400.03 1322.89 4395.11 1317.97 4395.11 1311.89 4395.11 1305.82 4400.03 1300.89 4406.11 1300.89 4412.18 1300.89 4417.11 1305.82 4417.11 1311.89Z" stroke="#ED7D31" stroke-width="3.4375" stroke-linejoin="round" stroke-miterlimit="10" fill="#ED7D31"/><path d="M4654.11 1159.89C4654.11 1165.97 4649.18 1170.89 4643.11 1170.89 4637.03 1170.89 4632.11 1165.97 4632.11 1159.89 4632.11 1153.82 4637.03 1148.89 4643.11 1148.89 4649.18 1148.89 4654.11 1153.82 4654.11 1159.89Z" stroke="#ED7D31" stroke-width="3.4375" stroke-linejoin="round" stroke-miterlimit="10" fill="#ED7D31"/><path d="M4891.11 1016.89C4891.11 1022.97 4886.18 1027.89 4880.11 1027.89 4874.03 1027.89 4869.11 1022.97 4869.11 1016.89 4869.11 1010.82 4874.03 1005.89 4880.11 1005.89 4886.18 1005.89 4891.11 1010.82 4891.11 1016.89Z" stroke="#ED7D31" stroke-width="3.4375" stroke-linejoin="round" stroke-miterlimit="10" fill="#ED7D31"/><path d="M5128.11 858.893C5128.11 864.968 5123.18 869.892 5117.11 869.892 5111.03 869.892 5106.11 864.968 5106.11 858.893 5106.11 852.818 5111.03 847.893 5117.11 847.893 5123.18 847.893 5128.11 852.818 5128.11 858.893Z" stroke="#ED7D31" stroke-width="3.4375" stroke-linejoin="round" stroke-miterlimit="10" fill="#ED7D31"/><path d="M5365.11 719.893C5365.11 725.968 5360.18 730.892 5354.11 730.892 5348.03 730.892 5343.11 725.968 5343.11 719.893 5343.11 713.818 5348.03 708.893 5354.11 708.893 5360.18 708.893 5365.11 713.818 5365.11 719.893Z" stroke="#ED7D31" stroke-width="3.4375" stroke-linejoin="round" stroke-miterlimit="10" fill="#ED7D31"/><path d="M5602.11 622.893C5602.11 628.968 5597.18 633.892 5591.11 633.892 5585.03 633.892 5580.11 628.968 5580.11 622.893 5580.11 616.818 5585.03 611.893 5591.11 611.893 5597.18 611.893 5602.11 616.818 5602.11 622.893Z" stroke="#ED7D31" stroke-width="3.4375" stroke-linejoin="round" stroke-miterlimit="10" fill="#ED7D31"/><path d="M5839.11 552.893C5839.11 558.967 5834.18 563.892 5828.11 563.892 5822.03 563.892 5817.11 558.967 5817.11 552.893 5817.11 546.818 5822.03 541.893 5828.11 541.893 5834.18 541.893 5839.11 546.818 5839.11 552.893Z" stroke="#ED7D31" stroke-width="3.4375" stroke-linejoin="round" stroke-miterlimit="10" fill="#ED7D31"/><path d="M6076.11 464.893C6076.11 470.967 6071.18 475.892 6065.11 475.892 6059.03 475.892 6054.11 470.967 6054.11 464.893 6054.11 458.818 6059.03 453.893 6065.11 453.893 6071.18 453.893 6076.11 458.818 6076.11 464.893Z" stroke="#ED7D31" stroke-width="3.4375" stroke-linejoin="round" stroke-miterlimit="10" fill="#ED7D31"/><path d="M6312.11 371.893C6312.11 377.968 6307.18 382.892 6301.11 382.892 6295.03 382.892 6290.11 377.968 6290.11 371.893 6290.11 365.818 6295.03 360.893 6301.11 360.893 6307.18 360.893 6312.11 365.818 6312.11 371.893Z" stroke="#ED7D31" stroke-width="3.4375" stroke-linejoin="round" stroke-miterlimit="10" fill="#ED7D31"/></g><g clip-path="url(#clip12)"><text fill="#595959" font-family="Yu Gothic UI,Yu Gothic UI_MSFontService,sans-serif" font-weight="400" font-size="73" transform="matrix(1 0 0 1 3818.23 1619)">0</text></g><g clip-path="url(#clip13)"><text fill="#595959" font-family="Yu Gothic UI,Yu Gothic UI_MSFontService,sans-serif" font-weight="400" font-size="73" transform="matrix(1 0 0 1 3699.64 1392)">2000</text></g><g clip-path="url(#clip14)"><text fill="#595959" font-family="Yu Gothic UI,Yu Gothic UI_MSFontService,sans-serif" font-weight="400" font-size="73" transform="matrix(1 0 0 1 3699.64 1166)">4000</text></g><g clip-path="url(#clip15)"><text fill="#595959" font-family="Yu Gothic UI,Yu Gothic UI_MSFontService,sans-serif" font-weight="400" font-size="73" transform="matrix(1 0 0 1 3699.64 939)">6000</text></g><g clip-path="url(#clip16)"><text fill="#595959" font-family="Yu Gothic UI,Yu Gothic UI_MSFontService,sans-serif" font-weight="400" font-size="73" transform="matrix(1 0 0 1 3699.64 712)">8000</text></g><g clip-path="url(#clip17)"><text fill="#595959" font-family="Yu Gothic UI,Yu Gothic UI_MSFontService,sans-serif" font-weight="400" font-size="73" transform="matrix(1 0 0 1 3660.1 486)">10000</text></g><g clip-path="url(#clip18)"><text fill="#595959" font-family="Yu Gothic UI,Yu Gothic UI_MSFontService,sans-serif" font-weight="400" font-size="73" transform="matrix(1 0 0 1 3660.1 259)">12000</text></g><g clip-path="url(#clip19)"><text fill="#595959" font-family="Yu Gothic UI,Yu Gothic UI_MSFontService,sans-serif" font-weight="400" font-size="73" transform="matrix(1 0 0 1 3865.66 1726)">0.00</text></g><g clip-path="url(#clip20)"><text fill="#595959" font-family="Yu Gothic UI,Yu Gothic UI_MSFontService,sans-serif" font-weight="400" font-size="73" transform="matrix(1 0 0 1 4102.56 1726)">0.10</text></g><g clip-path="url(#clip21)"><text fill="#595959" font-family="Yu Gothic UI,Yu Gothic UI_MSFontService,sans-serif" font-weight="400" font-size="73" transform="matrix(1 0 0 1 4339.46 1726)">0.20</text></g><g clip-path="url(#clip22)"><text fill="#595959" font-family="Yu Gothic UI,Yu Gothic UI_MSFontService,sans-serif" font-weight="400" font-size="73" transform="matrix(1 0 0 1 4576.37 1726)">0.30</text></g><g clip-path="url(#clip23)"><text fill="#595959" font-family="Yu Gothic UI,Yu Gothic UI_MSFontService,sans-serif" font-weight="400" font-size="73" transform="matrix(1 0 0 1 4813.27 1726)">0.40</text></g><g clip-path="url(#clip24)"><text fill="#595959" font-family="Yu Gothic UI,Yu Gothic UI_MSFontService,sans-serif" font-weight="400" font-size="73" transform="matrix(1 0 0 1 5050.17 1726)">0.50</text></g><g clip-path="url(#clip25)"><text fill="#595959" font-family="Yu Gothic UI,Yu Gothic UI_MSFontService,sans-serif" font-weight="400" font-size="73" transform="matrix(1 0 0 1 5287.08 1726)">0.60</text></g><g clip-path="url(#clip26)"><text fill="#595959" font-family="Yu Gothic UI,Yu Gothic UI_MSFontService,sans-serif" font-weight="400" font-size="73" transform="matrix(1 0 0 1 5523.98 1726)">0.70</text></g><g clip-path="url(#clip27)"><text fill="#595959" font-family="Yu Gothic UI,Yu Gothic UI_MSFontService,sans-serif" font-weight="400" font-size="73" transform="matrix(1 0 0 1 5760.89 1726)">0.80</text></g><g clip-path="url(#clip28)"><text fill="#595959" font-family="Yu Gothic UI,Yu Gothic UI_MSFontService,sans-serif" font-weight="400" font-size="73" transform="matrix(1 0 0 1 5997.79 1726)">0.90</text></g><g clip-path="url(#clip29)"><text fill="#595959" font-family="Yu Gothic UI,Yu Gothic UI_MSFontService,sans-serif" font-weight="400" font-size="73" transform="matrix(1 0 0 1 6234.69 1726)">1.00</text></g><g clip-path="url(#clip30)"><text fill="#595959" font-family="Yu Gothic UI,Yu Gothic UI_MSFontService,sans-serif" font-weight="400" font-size="73" transform="matrix(6.12323e-17 -1 1 6.12323e-17 3618.65 1311)">Rotational speed [rpm]</text></g><g clip-path="url(#clip31)"><text fill="#595959" font-family="Yu Gothic UI,Yu Gothic UI_MSFontService,sans-serif" font-weight="400" font-size="73" transform="matrix(1 0 0 1 5040.8 1817)">Duty</text></g><g clip-path="url(#clip32)"><text fill="#595959" font-family="Yu Gothic UI,Yu Gothic UI_MSFontService,sans-serif" font-weight="400" font-size="73" transform="matrix(1 0 0 1 4090.13 194)">RPM vs. duty, 6</text></g><g clip-path="url(#clip33)"><text fill="#595959" font-family="Yu Gothic UI,Yu Gothic UI_MSFontService,sans-serif" font-weight="400" font-size="73" transform="matrix(1 0 0 1 4583.78 194)">-</text></g><g clip-path="url(#clip34)"><text fill="#595959" font-family="Yu Gothic UI,Yu Gothic UI_MSFontService,sans-serif" font-weight="400" font-size="73" transform="matrix(1 0 0 1 4613.11 194)">pulse control, Raspberry Pi + X</text></g><g clip-path="url(#clip35)"><text fill="#595959" font-family="Yu Gothic UI,Yu Gothic UI_MSFontService,sans-serif" font-weight="400" font-size="73" transform="matrix(1 0 0 1 5606.35 194)">-</text></g><g clip-path="url(#clip36)"><text fill="#595959" font-family="Yu Gothic UI,Yu Gothic UI_MSFontService,sans-serif" font-weight="400" font-size="73" transform="matrix(1 0 0 1 5635.68 194)">Nucleo</text></g><g clip-path="url(#clip37)"><text fill="#595959" font-family="Yu Gothic UI,Yu Gothic UI_MSFontService,sans-serif" font-weight="400" font-size="73" transform="matrix(1 0 0 1 5864.98 194)">-</text></g><g clip-path="url(#clip38)"><text fill="#595959" font-family="Yu Gothic UI,Yu Gothic UI_MSFontService,sans-serif" font-weight="400" font-size="73" transform="matrix(1 0 0 1 5894.32 194)">IHM07M1</text></g><g clip-path="url(#clip39)"><rect x="3978.5" y="261.5" width="1099" height="212" stroke="#767171" stroke-width="3.4375" stroke-linejoin="round" stroke-miterlimit="10" fill="#FFFFFF"/></g><g clip-path="url(#clip40)"><path d="M4077.5 314.5 4165.5 314.5" stroke="#4472C4" stroke-width="6.875" stroke-linecap="round" stroke-linejoin="round" stroke-miterlimit="10" fill="none" fill-rule="evenodd"/></g><g clip-path="url(#clip41)"><path d="M4132 314C4132 320.075 4127.08 324.999 4121 324.999 4114.92 324.999 4110 320.075 4110 314 4110 307.925 4114.92 303 4121 303 4127.08 303 4132 307.925 4132 314Z" stroke="#4472C4" stroke-width="3.4375" stroke-linejoin="round" stroke-miterlimit="10" fill="#4472C4"/></g><g clip-path="url(#clip42)"><text fill="#595959" font-family="Yu Gothic UI,Yu Gothic UI_MSFontService,sans-serif" font-weight="400" font-size="73" transform="matrix(1 0 0 1 4174.41 339)">Raspberry Pi Zero WH</text></g><g clip-path="url(#clip43)"><path d="M4077.5 420.5 4165.5 420.5" stroke="#ED7D31" stroke-width="6.875" stroke-linecap="round" stroke-linejoin="round" stroke-miterlimit="10" fill="none" fill-rule="evenodd"/></g><g clip-path="url(#clip44)"><path d="M4132 420C4132 426.075 4127.08 430.999 4121 430.999 4114.92 430.999 4110 426.075 4110 420 4110 413.924 4114.92 409 4121 409 4127.08 409 4132 413.924 4132 420Z" stroke="#ED7D31" stroke-width="3.4375" stroke-linejoin="round" stroke-miterlimit="10" fill="#ED7D31"/></g><g clip-path="url(#clip45)"><text fill="#595959" font-family="Yu Gothic UI,Yu Gothic UI_MSFontService,sans-serif" font-weight="400" font-size="73" transform="matrix(1 0 0 1 4174.41 444)">Raspberry Pi 3 Model A+</text></g><rect x="3487.5" y="88.4998" width="2946" height="1768" stroke="#D9D9D9" stroke-width="3.4375" stroke-linejoin="round" stroke-miterlimit="10" fill="none"/></g></svg>